<?xml version="1.0" encoding="UTF-8" standalone="no"?>
<!-- Generated by SVGo -->

<svg
   width="295.752mm"
   height="105.252mm"
   viewBox="0.000 0.000 295.752 105.252"
   version="1.1"
   id="svg138"
   sodipodi:docname="jis-like-plate-outline.svg"
   inkscape:version="1.1.1 (3bf5ae0d25, 2021-09-20)"
   xmlns:inkscape="http://www.inkscape.org/namespaces/inkscape"
   xmlns:sodipodi="http://sodipodi.sourceforge.net/DTD/sodipodi-0.dtd"
   xmlns="http://www.w3.org/2000/svg"
   xmlns:svg="http://www.w3.org/2000/svg">
  <defs
     id="defs142" />
  <sodipodi:namedview
     id="namedview140"
     pagecolor="#ffffff"
     bordercolor="#666666"
     borderopacity="1.0"
     inkscape:pageshadow="2"
     inkscape:pageopacity="0.0"
     inkscape:pagecheckerboard="0"
     inkscape:document-units="mm"
     showgrid="false"
     inkscape:zoom="1.093216"
     inkscape:cx="820.51488"
     inkscape:cy="188.89222"
     inkscape:window-width="1920"
     inkscape:window-height="1027"
     inkscape:window-x="-8"
     inkscape:window-y="-8"
     inkscape:window-maximized="1"
     inkscape:current-layer="svg138"
     inkscape:snap-intersection-paths="true"
     inkscape:snap-smooth-nodes="true" />

  <circle id="hole0" cx="23.05" cy="25.7" r="2.5" style="fill:none;stroke:#0000ff;stroke-width:0.1;stroke-linecap:round;stroke-miterlimit:4;stroke-dasharray:none" />
  <rect id="hole0a" width="5" height="5" x="18.05" y="23.2" style="fill:none;stroke:#0000ff;stroke-width:0.1;stroke-linecap:round;stroke-miterlimit:4;stroke-dasharray:none" />
  <circle id="hole1" cx="257.9" cy="25.7" r="2.5" style="fill:none;stroke:#0000ff;stroke-width:0.1;stroke-linecap:round;stroke-miterlimit:4;stroke-dasharray:none" />
  <rect id="hole2" width="19.05" height="5" x="116.5375" y="42.6" style="fill:none;stroke:#0000ff;stroke-width:0.1;stroke-linecap:round;stroke-miterlimit:4;stroke-dasharray:none" />
  <circle id="hole3" cx="188.35" cy="83" r="2.5" style="fill:none;stroke:#0000ff;stroke-width:0.1;stroke-linecap:round;stroke-miterlimit:4;stroke-dasharray:none" />
  <rect id="hole3a" width="5" height="5" x="188.35" y="80.5" style="fill:none;stroke:#0000ff;stroke-width:0.1;stroke-linecap:round;stroke-miterlimit:4;stroke-dasharray:none" />

  <path id="r0" d="M 0,0 V 0.3 H 0.3 C 0.135,0.3 0,0.165 0,0 Z" transform="translate(18.7625,22.9)" style="fill:none;stroke:#0000ff;stroke-width:0.1;stroke-linecap:round;stroke-miterlimit:4;stroke-dasharray:none" />
  <path id="r1" d="M 0,0.3 V 0 H 0.3 C 0.135,0 0,0.135 0,0.3 Z" transform="translate(18.7625,28.2)" style="fill:none;stroke:#0000ff;stroke-width:0.1;stroke-linecap:round;stroke-miterlimit:4;stroke-dasharray:none" />

  <path id="r2" d="M 0,0 V 0.3 H 0.3 C 0.135,0.3 0,0.165 0,0 Z" transform="translate(123.5375,42.3)" style="fill:none;stroke:#0000ff;stroke-width:0.1;stroke-linecap:round;stroke-miterlimit:4;stroke-dasharray:none" />
  <path id="r3" d="M 0.3,0 V 0.3 H 0 C 0.165,0.3 0.3,0.165 0.3,0 Z" transform="translate(128.2875,42.3)" style="fill:none;stroke:#0000ff;stroke-width:0.1;stroke-linecap:round;stroke-miterlimit:4;stroke-dasharray:none" />
  <path id="r4" d="M 0,0.3 V 0 H 0.3 C 0.135,0 0,0.135 0,0.3 Z" transform="translate(123.5375,47.6)" style="fill:none;stroke:#0000ff;stroke-width:0.1;stroke-linecap:round;stroke-miterlimit:4;stroke-dasharray:none" />
  <path id="r5" d="M 0.3,0.3 V 0 H 0 C 0.135,0 0.3,0.135 0.3,0.3 Z" transform="translate(128.2875,47.6)" style="fill:none;stroke:#0000ff;stroke-width:0.1;stroke-linecap:round;stroke-miterlimit:4;stroke-dasharray:none" />

  <path id="r6" d="M 0,0 V 0.3 H 0.3 C 0.135,0.3 0,0.165 0,0 Z" transform="translate(9.90625,57.85)" style="fill:none;stroke:#0000ff;stroke-width:0.1;stroke-linecap:round;stroke-miterlimit:4;stroke-dasharray:none" />
  <path id="r7" d="M 0,0.3 V 0 H 0.3 C 0.135,0 0,0.135 0,0.3 Z" transform="translate(9.90625,70.15)" style="fill:none;stroke:#0000ff;stroke-width:0.1;stroke-linecap:round;stroke-miterlimit:4;stroke-dasharray:none" />
  <path id="r8" d="M 0.3,0 V 0.3 H 0 C 0.165,0.3 0.3,0.165 0.3,0 Z" transform="translate(11.60625,57.85)" style="fill:none;stroke:#0000ff;stroke-width:0.1;stroke-linecap:round;stroke-miterlimit:4;stroke-dasharray:none" />
  <path id="r9" d="M 0.3,0.3 V 0 H 0 C 0.135,0 0.3,0.135 0.3,0.3 Z" transform="translate(11.60625,70.15)" style="fill:none;stroke:#0000ff;stroke-width:0.1;stroke-linecap:round;stroke-miterlimit:4;stroke-dasharray:none" />
  <path id="r10" d="M 0,0 V 0.3 H 0.3 C 0.135,0.3 0,0.165 0,0 Z" transform="translate(25.90625,57.85)" style="fill:none;stroke:#0000ff;stroke-width:0.1;stroke-linecap:round;stroke-miterlimit:4;stroke-dasharray:none" />
  <path id="r11" d="M 0,0.3 V 0 H 0.3 C 0.135,0 0,0.135 0,0.3 Z" transform="translate(25.90625,70.15)" style="fill:none;stroke:#0000ff;stroke-width:0.1;stroke-linecap:round;stroke-miterlimit:4;stroke-dasharray:none" />
  <path id="r12" d="M 0.3,0 V 0.3 H 0 C 0.165,0.3 0.3,0.165 0.3,0 Z" transform="translate(27.60625,57.85)" style="fill:none;stroke:#0000ff;stroke-width:0.1;stroke-linecap:round;stroke-miterlimit:4;stroke-dasharray:none" />
  <path id="r13" d="M 0.3,0.3 V 0 H 0 C 0.135,0 0.3,0.135 0.3,0.3 Z" transform="translate(27.60625,70.15)" style="fill:none;stroke:#0000ff;stroke-width:0.1;stroke-linecap:round;stroke-miterlimit:4;stroke-dasharray:none" />

  <path id="r14" d="M 0,0.3 V 0 H 0.3 C 0.135,0 0,0.135 0,0.3 Z" transform="translate(277.31875,26.575)" style="fill:none;stroke:#0000ff;stroke-width:0.1;stroke-linecap:round;stroke-miterlimit:4;stroke-dasharray:none" />
  <path id="r15" d="M 0.3,0.3 V 0 H 0 C 0.135,0 0.3,0.135 0.3,0.3 Z" transform="translate(265.01875,26.575)" style="fill:none;stroke:#0000ff;stroke-width:0.1;stroke-linecap:round;stroke-miterlimit:4;stroke-dasharray:none" />
  <path id="r16" d="M 0,0 V 0.3 H 0.3 C 0.135,0.3 0,0.165 0,0 Z" transform="translate(277.31875,28.275)" style="fill:none;stroke:#0000ff;stroke-width:0.1;stroke-linecap:round;stroke-miterlimit:4;stroke-dasharray:none" />
  <path id="r17" d="M 0.3,0 V 0.3 H 0 C 0.165,0.3 0.3,0.165 0.3,0 Z" transform="translate(265.01875,28.275)" style="fill:none;stroke:#0000ff;stroke-width:0.1;stroke-linecap:round;stroke-miterlimit:4;stroke-dasharray:none" />
  <path id="r18" d="M 0,0.3 V 0 H 0.3 C 0.135,0 0,0.135 0,0.3 Z" transform="translate(277.31875,42.575)" style="fill:none;stroke:#0000ff;stroke-width:0.1;stroke-linecap:round;stroke-miterlimit:4;stroke-dasharray:none" />
  <path id="r19" d="M 0.3,0.3 V 0 H 0 C 0.135,0 0.3,0.135 0.3,0.3 Z" transform="translate(265.01875,42.575)" style="fill:none;stroke:#0000ff;stroke-width:0.1;stroke-linecap:round;stroke-miterlimit:4;stroke-dasharray:none" />
  <path id="r20" d="M 0,0 V 0.3 H 0.3 C 0.135,0.3 0,0.165 0,0 Z" transform="translate(277.31875,44.275)" style="fill:none;stroke:#0000ff;stroke-width:0.1;stroke-linecap:round;stroke-miterlimit:4;stroke-dasharray:none" />
  <path id="r21" d="M 0.3,0 V 0.3 H 0 C 0.165,0.3 0.3,0.165 0.3,0 Z" transform="translate(265.01875,44.275)" style="fill:none;stroke:#0000ff;stroke-width:0.1;stroke-linecap:round;stroke-miterlimit:4;stroke-dasharray:none" />

  <path id="r22" d="M 0.3,0 V 0.3 H 0 C 0.165,0.3 0.3,0.165 0.3,0 Z" transform="translate(190.2,80.2)" style="fill:none;stroke:#0000ff;stroke-width:0.1;stroke-linecap:round;stroke-miterlimit:4;stroke-dasharray:none" />
  <path id="r23" d="M 0.3,0.3 V 0 H 0 C 0.135,0 0.3,0.135 0.3,0.3 Z" transform="translate(190.2,85.5)" style="fill:none;stroke:#0000ff;stroke-width:0.1;stroke-linecap:round;stroke-miterlimit:4;stroke-dasharray:none" />

  <rect id="outline" width="286.500" height="96.000" x="-2.900" y="-2.900" rx="1" ry="1" style="fill:none;stroke:#0000ff;stroke-width:0.1;stroke-linecap:round;stroke-miterlimit:4;stroke-dasharray:none" />
  <rect id="esc" width="14" height="14" x="0" y="0" rx="0.3" ry="0.3" style="fill:none;stroke:#ff0000;stroke-width:0.1;stroke-linecap:round;stroke-miterlimit:4;stroke-dasharray:none" />
  <rect id="1" width="14" height="14" x="19.05" y="0" rx="0.3" ry="0.3" style="fill:none;stroke:#ff0000;stroke-width:0.1;stroke-linecap:round;stroke-miterlimit:4;stroke-dasharray:none" />
  <rect id="2" width="14" height="14" x="38.1" y="0" rx="0.3" ry="0.3" style="fill:none;stroke:#ff0000;stroke-width:0.1;stroke-linecap:round;stroke-miterlimit:4;stroke-dasharray:none" />
  <rect id="3" width="14" height="14" x="57.15" y="0" rx="0.3" ry="0.3" style="fill:none;stroke:#ff0000;stroke-width:0.1;stroke-linecap:round;stroke-miterlimit:4;stroke-dasharray:none" />
  <rect id="4" width="14" height="14" x="76.2" y="0" rx="0.3" ry="0.3" style="fill:none;stroke:#ff0000;stroke-width:0.1;stroke-linecap:round;stroke-miterlimit:4;stroke-dasharray:none" />
  <rect id="5" width="14" height="14" x="95.25" y="0" rx="0.3" ry="0.3" style="fill:none;stroke:#ff0000;stroke-width:0.1;stroke-linecap:round;stroke-miterlimit:4;stroke-dasharray:none" />
  <rect id="6" width="14" height="14" x="114.3" y="0" rx="0.3" ry="0.3" style="fill:none;stroke:#ff0000;stroke-width:0.1;stroke-linecap:round;stroke-miterlimit:4;stroke-dasharray:none" />
  <rect id="7" width="14" height="14" x="133.35" y="0" rx="0.3" ry="0.3" style="fill:none;stroke:#ff0000;stroke-width:0.1;stroke-linecap:round;stroke-miterlimit:4;stroke-dasharray:none" />
  <rect id="8" width="14" height="14" x="152.4" y="0" rx="0.3" ry="0.3" style="fill:none;stroke:#ff0000;stroke-width:0.1;stroke-linecap:round;stroke-miterlimit:4;stroke-dasharray:none" />
  <rect id="9" width="14" height="14" x="171.45" y="0" rx="0.3" ry="0.3" style="fill:none;stroke:#ff0000;stroke-width:0.1;stroke-linecap:round;stroke-miterlimit:4;stroke-dasharray:none" />
  <rect id="0" width="14" height="14" x="190.5" y="0" rx="0.3" ry="0.3" style="fill:none;stroke:#ff0000;stroke-width:0.1;stroke-linecap:round;stroke-miterlimit:4;stroke-dasharray:none" />
  <rect id="dash" width="14" height="14" x="209.55" y="0" rx="0.3" ry="0.3" style="fill:none;stroke:#ff0000;stroke-width:0.1;stroke-linecap:round;stroke-miterlimit:4;stroke-dasharray:none" />
  <rect id="hat" width="14" height="14" x="228.6" y="0" rx="0.3" ry="0.3" style="fill:none;stroke:#ff0000;stroke-width:0.1;stroke-linecap:round;stroke-miterlimit:4;stroke-dasharray:none" />
  <rect id="yen" width="14" height="14" x="247.65" y="0" rx="0.3" ry="0.3" style="fill:none;stroke:#ff0000;stroke-width:0.1;stroke-linecap:round;stroke-miterlimit:4;stroke-dasharray:none" />
  <rect id="bs" width="14" height="14" x="266.7" y="0" rx="0.3" ry="0.3" style="fill:none;stroke:#ff0000;stroke-width:0.1;stroke-linecap:round;stroke-miterlimit:4;stroke-dasharray:none" />
  <rect id="tab" width="14" height="14" x="4.7625" y="19.05" rx="0.3" ry="0.3" style="fill:none;stroke:#ff0000;stroke-width:0.1;stroke-linecap:round;stroke-miterlimit:4;stroke-dasharray:none" />
  <rect id="q" width="14" height="14" x="28.575" y="19.05" rx="0.3" ry="0.3" style="fill:none;stroke:#ff0000;stroke-width:0.1;stroke-linecap:round;stroke-miterlimit:4;stroke-dasharray:none" />
  <rect id="w" width="14" height="14" x="47.625" y="19.05" rx="0.3" ry="0.3" style="fill:none;stroke:#ff0000;stroke-width:0.1;stroke-linecap:round;stroke-miterlimit:4;stroke-dasharray:none" />
  <rect id="e" width="14" height="14" x="66.675" y="19.05" rx="0.3" ry="0.3" style="fill:none;stroke:#ff0000;stroke-width:0.1;stroke-linecap:round;stroke-miterlimit:4;stroke-dasharray:none" />
  <rect id="r" width="14" height="14" x="85.725" y="19.05" rx="0.3" ry="0.3" style="fill:none;stroke:#ff0000;stroke-width:0.1;stroke-linecap:round;stroke-miterlimit:4;stroke-dasharray:none" />
  <rect id="t" width="14" height="14" x="104.775" y="19.05" rx="0.3" ry="0.3" style="fill:none;stroke:#ff0000;stroke-width:0.1;stroke-linecap:round;stroke-miterlimit:4;stroke-dasharray:none" />
  <rect id="y" width="14" height="14" x="123.825" y="19.05" rx="0.3" ry="0.3" style="fill:none;stroke:#ff0000;stroke-width:0.1;stroke-linecap:round;stroke-miterlimit:4;stroke-dasharray:none" />
  <rect id="u" width="14" height="14" x="142.875" y="19.05" rx="0.3" ry="0.3" style="fill:none;stroke:#ff0000;stroke-width:0.1;stroke-linecap:round;stroke-miterlimit:4;stroke-dasharray:none" />
  <rect id="i" width="14" height="14" x="161.925" y="19.05" rx="0.3" ry="0.3" style="fill:none;stroke:#ff0000;stroke-width:0.1;stroke-linecap:round;stroke-miterlimit:4;stroke-dasharray:none" />
  <rect id="o" width="14" height="14" x="180.975" y="19.05" rx="0.3" ry="0.3" style="fill:none;stroke:#ff0000;stroke-width:0.1;stroke-linecap:round;stroke-miterlimit:4;stroke-dasharray:none" />
  <rect id="p" width="14" height="14" x="200.025" y="19.05" rx="0.3" ry="0.3" style="fill:none;stroke:#ff0000;stroke-width:0.1;stroke-linecap:round;stroke-miterlimit:4;stroke-dasharray:none" />
  <rect id="at" width="14" height="14" x="219.075" y="19.05" rx="0.3" ry="0.3" style="fill:none;stroke:#ff0000;stroke-width:0.1;stroke-linecap:round;stroke-miterlimit:4;stroke-dasharray:none" />
  <rect id="enter" width="14" height="14" x="264.31875" y="28.575" rx="0.3" ry="0.3" style="fill:none;stroke:#ff0000;stroke-width:0.1;stroke-linecap:round;stroke-miterlimit:4;stroke-dasharray:none" />
  <rect id="entstb0" width="14" height="6.9" x="264.31875" y="19.675" rx="0.3" ry="0.3" style="fill:none;stroke:#0000ff;stroke-width:0.1;stroke-linecap:round;stroke-miterlimit:4;stroke-dasharray:none" />
  <rect id="entstb1" width="14" height="6.9" x="264.31875" y="44.575" rx="0.3" ry="0.3" style="fill:none;stroke:#0000ff;stroke-width:0.1;stroke-linecap:round;stroke-miterlimit:4;stroke-dasharray:none" />
  <rect id="entstbh" width="12" height="31.8" x="265.31875" y="19.675" rx="0.3" ry="0.3" style="fill:none;stroke:#0000ff;stroke-width:0.1;stroke-linecap:round;stroke-miterlimit:4;stroke-dasharray:none" />
  <rect id="lsb" width="14" height="14" x="238.125" y="19.05" rx="0.3" ry="0.3" style="fill:none;stroke:#ff0000;stroke-width:0.1;stroke-linecap:round;stroke-miterlimit:4;stroke-dasharray:none" />
  <rect id="caps" width="14" height="14" x="7.14375" y="38.1" rx="0.3" ry="0.3" style="fill:none;stroke:#ff0000;stroke-width:0.1;stroke-linecap:round;stroke-miterlimit:4;stroke-dasharray:none" />
  <rect id="a" width="14" height="14" x="33.3375" y="38.1" rx="0.3" ry="0.3" style="fill:none;stroke:#ff0000;stroke-width:0.1;stroke-linecap:round;stroke-miterlimit:4;stroke-dasharray:none" />
  <rect id="s" width="14" height="14" x="52.3875" y="38.1" rx="0.3" ry="0.3" style="fill:none;stroke:#ff0000;stroke-width:0.1;stroke-linecap:round;stroke-miterlimit:4;stroke-dasharray:none" />
  <rect id="d" width="14" height="14" x="71.4375" y="38.1" rx="0.3" ry="0.3" style="fill:none;stroke:#ff0000;stroke-width:0.1;stroke-linecap:round;stroke-miterlimit:4;stroke-dasharray:none" />
  <rect id="f" width="14" height="14" x="90.4875" y="38.1" rx="0.3" ry="0.3" style="fill:none;stroke:#ff0000;stroke-width:0.1;stroke-linecap:round;stroke-miterlimit:4;stroke-dasharray:none" />
  <rect id="g" width="14" height="14" x="109.5375" y="38.1" rx="0.3" ry="0.3" style="fill:none;stroke:#ff0000;stroke-width:0.1;stroke-linecap:round;stroke-miterlimit:4;stroke-dasharray:none" />
  <rect id="h" width="14" height="14" x="128.5875" y="38.1" rx="0.3" ry="0.3" style="fill:none;stroke:#ff0000;stroke-width:0.1;stroke-linecap:round;stroke-miterlimit:4;stroke-dasharray:none" />
  <rect id="j" width="14" height="14" x="147.6375" y="38.1" rx="0.3" ry="0.3" style="fill:none;stroke:#ff0000;stroke-width:0.1;stroke-linecap:round;stroke-miterlimit:4;stroke-dasharray:none" />
  <rect id="k" width="14" height="14" x="166.6875" y="38.1" rx="0.3" ry="0.3" style="fill:none;stroke:#ff0000;stroke-width:0.1;stroke-linecap:round;stroke-miterlimit:4;stroke-dasharray:none" />
  <rect id="l" width="14" height="14" x="185.7375" y="38.1" rx="0.3" ry="0.3" style="fill:none;stroke:#ff0000;stroke-width:0.1;stroke-linecap:round;stroke-miterlimit:4;stroke-dasharray:none" />
  <rect id="semicoron" width="14" height="14" x="204.7875" y="38.1" rx="0.3" ry="0.3" style="fill:none;stroke:#ff0000;stroke-width:0.1;stroke-linecap:round;stroke-miterlimit:4;stroke-dasharray:none" />
  <rect id="coron" width="14" height="14" x="223.8375" y="38.1" rx="0.3" ry="0.3" style="fill:none;stroke:#ff0000;stroke-width:0.1;stroke-linecap:round;stroke-miterlimit:4;stroke-dasharray:none" />
  <rect id="rsb" width="14" height="14" x="242.8875" y="38.1" rx="0.3" ry="0.3" style="fill:none;stroke:#ff0000;stroke-width:0.1;stroke-linecap:round;stroke-miterlimit:4;stroke-dasharray:none" />
  <rect id="lshift" width="14" height="14" x="11.90625" y="57.15" rx="0.3" ry="0.3" style="fill:none;stroke:#ff0000;stroke-width:0.1;stroke-linecap:round;stroke-miterlimit:4;stroke-dasharray:none" />
  <rect id="lsstb0" width="6.9" height="14" x="3.00625" y="57.15" rx="0.3" ry="0.3" style="fill:none;stroke:#0000ff;stroke-width:0.1;stroke-linecap:round;stroke-miterlimit:4;stroke-dasharray:none" />
  <rect id="lsstb1" width="6.9" height="14" x="27.90625" y="57.15" rx="0.3" ry="0.3" style="fill:none;stroke:#0000ff;stroke-width:0.1;stroke-linecap:round;stroke-miterlimit:4;stroke-dasharray:none" />
  <rect id="lsstbh" width="31.8" height="12" x="3.00625" y="58.15" rx="0.3" ry="0.3" style="fill:none;stroke:#0000ff;stroke-width:0.1;stroke-linecap:round;stroke-miterlimit:4;stroke-dasharray:none" />
  <rect id="z" width="14" height="14" x="42.8625" y="57.15" rx="0.3" ry="0.3" style="fill:none;stroke:#ff0000;stroke-width:0.1;stroke-linecap:round;stroke-miterlimit:4;stroke-dasharray:none" />
  <rect id="x" width="14" height="14" x="61.9125" y="57.15" rx="0.3" ry="0.3" style="fill:none;stroke:#ff0000;stroke-width:0.1;stroke-linecap:round;stroke-miterlimit:4;stroke-dasharray:none" />
  <rect id="c" width="14" height="14" x="80.9625" y="57.15" rx="0.3" ry="0.3" style="fill:none;stroke:#ff0000;stroke-width:0.1;stroke-linecap:round;stroke-miterlimit:4;stroke-dasharray:none" />
  <rect id="v" width="14" height="14" x="100.0125" y="57.15" rx="0.3" ry="0.3" style="fill:none;stroke:#ff0000;stroke-width:0.1;stroke-linecap:round;stroke-miterlimit:4;stroke-dasharray:none" />
  <rect id="b" width="14" height="14" x="119.0625" y="57.15" rx="0.3" ry="0.3" style="fill:none;stroke:#ff0000;stroke-width:0.1;stroke-linecap:round;stroke-miterlimit:4;stroke-dasharray:none" />
  <rect id="n" width="14" height="14" x="138.1125" y="57.15" rx="0.3" ry="0.3" style="fill:none;stroke:#ff0000;stroke-width:0.1;stroke-linecap:round;stroke-miterlimit:4;stroke-dasharray:none" />
  <rect id="m" width="14" height="14" x="157.1625" y="57.15" rx="0.3" ry="0.3" style="fill:none;stroke:#ff0000;stroke-width:0.1;stroke-linecap:round;stroke-miterlimit:4;stroke-dasharray:none" />
  <rect id="comma" width="14" height="14" x="176.2125" y="57.15" rx="0.3" ry="0.3" style="fill:none;stroke:#ff0000;stroke-width:0.1;stroke-linecap:round;stroke-miterlimit:4;stroke-dasharray:none" />
  <rect id="period" width="14" height="14" x="195.2625" y="57.15" rx="0.3" ry="0.3" style="fill:none;stroke:#ff0000;stroke-width:0.1;stroke-linecap:round;stroke-miterlimit:4;stroke-dasharray:none" />
  <rect id="slash" width="14" height="14" x="214.3125" y="57.15" rx="0.3" ry="0.3" style="fill:none;stroke:#ff0000;stroke-width:0.1;stroke-linecap:round;stroke-miterlimit:4;stroke-dasharray:none" />
  <rect id="bslash" width="14" height="14" x="233.3625" y="57.15" rx="0.3" ry="0.3" style="fill:none;stroke:#ff0000;stroke-width:0.1;stroke-linecap:round;stroke-miterlimit:4;stroke-dasharray:none" />
  <rect id="rshift" width="14" height="14" x="259.55625" y="57.15" rx="0.3" ry="0.3" style="fill:none;stroke:#ff0000;stroke-width:0.1;stroke-linecap:round;stroke-miterlimit:4;stroke-dasharray:none" />
  <rect id="ctrl" width="14" height="14" x="2.38125" y="76.2" rx="0.3" ry="0.3" style="fill:none;stroke:#ff0000;stroke-width:0.1;stroke-linecap:round;stroke-miterlimit:4;stroke-dasharray:none" />
  <rect id="win" width="14" height="14" x="26.19375" y="76.2" rx="0.3" ry="0.3" style="fill:none;stroke:#ff0000;stroke-width:0.1;stroke-linecap:round;stroke-miterlimit:4;stroke-dasharray:none" />
  <rect id="alt" width="14" height="14" x="50.00625" y="76.2" rx="0.3" ry="0.3" style="fill:none;stroke:#ff0000;stroke-width:0.1;stroke-linecap:round;stroke-miterlimit:4;stroke-dasharray:none" />
  <rect id="space" width="14" height="14" x="121.44375" y="76.2" rx="0.3" ry="0.3" style="fill:none;stroke:#ff0000;stroke-width:0.1;stroke-linecap:round;stroke-miterlimit:4;stroke-dasharray:none" />
  <rect id="spcstb0" width="8" height="14" x="74.4375" y="76.2" rx="0.3" ry="0.3" style="fill:none;stroke:#ff0000;stroke-width:0.1;stroke-linecap:round;stroke-miterlimit:4;stroke-dasharray:none" />
  <rect id="spcstb1" width="8" height="14" x="174.45" y="76.2" rx="0.3" ry="0.3" style="fill:none;stroke:#ff0000;stroke-width:0.1;stroke-linecap:round;stroke-miterlimit:4;stroke-dasharray:none" />
  <rect id="left" width="14" height="14" x="190.5" y="76.2" rx="0.3" ry="0.3" style="fill:none;stroke:#ff0000;stroke-width:0.1;stroke-linecap:round;stroke-miterlimit:4;stroke-dasharray:none" />
  <rect id="down" width="14" height="14" x="209.55" y="76.2" rx="0.3" ry="0.3" style="fill:none;stroke:#ff0000;stroke-width:0.1;stroke-linecap:round;stroke-miterlimit:4;stroke-dasharray:none" />
  <rect id="up" width="14" height="14" x="228.6" y="76.2" rx="0.3" ry="0.3" style="fill:none;stroke:#ff0000;stroke-width:0.1;stroke-linecap:round;stroke-miterlimit:4;stroke-dasharray:none" />
  <rect id="right" width="14" height="14" x="247.65" y="76.2" rx="0.3" ry="0.3" style="fill:none;stroke:#ff0000;stroke-width:0.1;stroke-linecap:round;stroke-miterlimit:4;stroke-dasharray:none" />
  <rect id="del" width="14" height="14" x="266.7" y="76.2" rx="0.3" ry="0.3" style="fill:none;stroke:#ff0000;stroke-width:0.1;stroke-linecap:round;stroke-miterlimit:4;stroke-dasharray:none" />
</svg>
